# xmcd CD database file
#
# Track frame offsets:
#	150
#	20051
#	38192
#	57212
#	79326
#	98879
#	106434
#	129567
#	141234
#	164137
#	177673
#
# Disc length: 2542 seconds
#
# Revision: 0
# Processed by: cddbd v1.5.2PL0 Copyright (c) Steve Scherf et al.
# Submitted via: CDex 1.51
#
DISCID=a209ec0b
DTITLE=Warratahs - Keep on * * *
DYEAR=2006
DGENRE=Country
TTITLE0=Letter to America
TTITLE1=Devil I know
TTITLE2=Black Eyed Girl
TTITLE3=Pale Sun
TTITLE4=Some Day
TTITLE5=Instrumental
TTITLE6=Waterloo Street
TTITLE7=Down Reefton
TTITLE8=Keep On
TTITLE9=Peggioh
TTITLE10=Mission Hall Waltz
EXTD=YEAR: 2006
EXTT0=
EXTT1=
EXTT2=
EXTT3=
EXTT4=
EXTT5=
EXTT6=
EXTT7=
EXTT8=
EXTT9=
EXTT10=
PLAYORDER=
